<svg xmlns="http://www.w3.org/2000/svg" width="800" height="800" viewBox="0 0 800 800">
  <rect width="800" height="800" fill="#16211f"/>
  <g opacity="0.08" stroke="#ffffff" stroke-width="1">
    <line x1="0" y1="80" x2="800" y2="80"/><line x1="0" y1="160" x2="800" y2="160"/><line x1="0" y1="240" x2="800" y2="240"/><line x1="0" y1="320" x2="800" y2="320"/><line x1="0" y1="400" x2="800" y2="400"/><line x1="0" y1="480" x2="800" y2="480"/><line x1="0" y1="560" x2="800" y2="560"/><line x1="0" y1="640" x2="800" y2="640"/><line x1="0" y1="720" x2="800" y2="720"/>
    <line x1="80" y1="0" x2="80" y2="800"/><line x1="160" y1="0" x2="160" y2="800"/><line x1="240" y1="0" x2="240" y2="800"/><line x1="320" y1="0" x2="320" y2="800"/><line x1="400" y1="0" x2="400" y2="800"/><line x1="480" y1="0" x2="480" y2="800"/><line x1="560" y1="0" x2="560" y2="800"/><line x1="640" y1="0" x2="640" y2="800"/><line x1="720" y1="0" x2="720" y2="800"/>
  </g>
  <path d="M-40 720 L237 281.5 L397 467.6666666666667 L521.5 248.5 L840 720 Z" fill="#3ba99c" opacity="0.18"/>
  <path d="M-40 720 L237 281.5 L397 467.6666666666667 L521.5 248.5 L840 720 Z" fill="none" stroke="#3ba99c" stroke-width="10" stroke-linejoin="round"/>
  <circle cx="583" cy="168.5" r="42" fill="none" stroke="#3ba99c" stroke-width="8" opacity="0.85"/>
</svg>